# xmcd
#
# Track frame offsets:
#	150
#	19086
#	41143
#	60352
#	78885
#	91794
#	108600
#	123083
#	139066
#	152948
#	167883
#	184316
#	198574
#
# Disc length: 2898 seconds
#
# Revision: 1
# Processed by: cddbd v1.5.2PL0 Copyright (c) Steve Scherf et al.
# Submitted via: audiograbber 1.83.01
#
DISCID=aa0b500d
DTITLE=Andre Zweig - Narri Vain
DYEAR=1999
DGENRE=Pop
TTITLE0=Narri Vain
TTITLE1=On Aikaa
TTITLE2=Yksin Rannalla
TTITLE3=Happy End
TTITLE4=Pikku Mies
TTITLE5=Anteeksi
TTITLE6=Viisi Vuotta
TTITLE7=Ruuhkabussissa
TTITLE8=Sun Naurus Sytytt‰‰
TTITLE9=Taas Matkaa Teen
TTITLE10=Yksin
TTITLE11=L‰hteminen
TTITLE12=Clown Of The Town
EXTD=TR.
EXTT0=
EXTT1=
EXTT2=
EXTT3=
EXTT4=
EXTT5=
EXTT6=
EXTT7=
EXTT8=
EXTT9=
EXTT10=
EXTT11=
EXTT12=
PLAYORDER=
